<svg width="48" height="48" viewBox="0 0 48 48" fill="none" xmlns="http://www.w3.org/2000/svg">
    <path d="M43.3846 7C42.4982 7.01234 41.7813 7.74237 41.7692 8.64509V17.9687H38.5385V15.2255C38.5263 13.1116 36.8464 11.3986 34.7685 11.3883H6.76992C4.69215 11.3986 3.01215 13.1115 3 15.2255V37.1608C3.01212 39.2767 4.6921 40.9876 6.76992 41H34.7685C36.8463 40.9877 38.5263 39.2768 38.5385 37.1608V21.2589H43.3846C44.271 21.2466 44.9879 20.5165 45 19.6138V8.64514C44.9879 7.74242 44.271 7.01232 43.3846 7ZM15.9231 33.3215C15.9231 33.6135 15.81 33.8911 15.6081 34.0967C15.4062 34.3024 15.1315 34.4196 14.8468 34.4196H13.7686C13.1749 34.4196 12.6923 33.9281 12.6923 33.3215V32.2255C12.6923 31.6189 13.1749 31.1294 13.7686 31.1294H14.8468C15.1315 31.1294 15.4061 31.2446 15.6081 31.4502C15.81 31.6559 15.9231 31.9355 15.9231 32.2255V33.3215ZM20.2301 33.3215C20.2301 33.6135 20.117 33.8911 19.9151 34.0967C19.7132 34.3024 19.4385 34.4196 19.1538 34.4196H18.0776C17.4819 34.4196 16.9993 33.9281 16.9993 33.3215V32.2255C16.9993 31.6189 17.4819 31.1294 18.0776 31.1294H19.1538C19.4385 31.1294 19.7131 31.2446 19.9151 31.4502C20.117 31.6559 20.2301 31.9355 20.2301 32.2255V33.3215ZM18.0776 24C18.0877 23.0973 18.8045 22.3672 19.6929 22.3549H21.8475H21.8455C22.738 22.3549 23.4608 23.091 23.4608 24C23.4608 24.9089 22.738 25.6451 21.8455 25.6451H19.6929C18.8045 25.6327 18.0876 24.9027 18.0776 24ZM24.5391 33.3215C24.5391 33.6135 24.424 33.8911 24.2221 34.0967C24.0202 34.3024 23.7476 34.4196 23.4608 34.4196H22.3846C21.7889 34.4196 21.3083 33.9281 21.3083 33.3215V32.2255C21.3083 31.6189 21.7889 31.1294 22.3846 31.1294H23.4608C23.7475 31.1294 24.0201 31.2446 24.2221 31.4502C24.424 31.6559 24.5391 31.9355 24.5391 32.2255V33.3215ZM23.9999 21.2589H17.5384C16.6459 21.2589 15.923 20.5206 15.923 19.6138C15.923 18.7048 16.6459 17.9687 17.5384 17.9687H23.9999C24.8925 17.9687 25.6153 18.7048 25.6153 19.6138C25.6153 20.5206 24.8925 21.2589 23.9999 21.2589ZM28.8461 33.3236V33.3215C28.8461 33.6135 28.733 33.8911 28.5311 34.0968C28.3292 34.3024 28.0546 34.4196 27.7698 34.4196H26.6916C26.0979 34.4196 25.6153 33.9282 25.6153 33.3215V32.2255C25.6153 31.6189 26.0979 31.1295 26.6916 31.1295H27.7698C28.0545 31.1295 28.3291 31.2446 28.5311 31.4503C28.7331 31.6559 28.8461 31.9356 28.8461 32.2256V33.3236Z" fill="#E0462D"/>
    </svg>
    